<?xml version="1.0" encoding="UTF-8"?>
<svg width="2893.5px" height="665.7px" viewBox="0 0 2893.5 665.7" version="1.1" xmlns="http://www.w3.org/2000/svg" xmlns:xlink="http://www.w3.org/1999/xlink">
    <title>Logo Text</title>
    <g id="Logo" stroke="none" stroke-width="1" fill="none" fill-rule="evenodd">
        <g id="Logo-Text" fill="#FAFBFE" fill-rule="nonzero">
            <path d="M176.4,133.7 C221.666667,133.7 256.55,150.5 281.05,184.1 C305.55,217.7 317.8,265.066667 317.8,326.2 C317.8,392.466667 300.533333,443.45 266,479.15 C231.466667,514.85 181.3,532.7 115.5,532.7 C97.7666667,532.7 78.75,531.533333 58.45,529.2 C38.15,526.866667 18.6666667,523.366667 0,518.7 L0,7.7 L63,7.7 L63,230.3 L52.5,220.5 C64.1666667,192.5 80.6166667,171.033333 101.85,156.1 C123.083333,141.166667 147.933333,133.7 176.4,133.7 Z M159.6,189.7 C126,189.7 101.5,201.016667 86.1,223.65 C70.7,246.283333 63,282.1 63,331.1 L63,499.1 L39.2,467.6 C64.8666667,474.6 90.7666667,478.1 116.9,478.1 C149.566667,478.1 175.816667,472.966667 195.65,462.7 C215.483333,452.433333 229.95,436.566667 239.05,415.1 C248.15,393.633333 252.7,365.166667 252.7,329.7 C252.7,279.3 245.35,243.366667 230.65,221.9 C215.95,200.433333 192.266667,189.7 159.6,189.7 Z" id="Shape"></path>
            <path d="M486.8,408.1 C486.8,431.9 491.816667,449.633333 501.85,461.3 C511.883333,472.966667 527.866667,478.8 549.8,478.8 C571.733333,478.8 592.616667,471.216667 612.45,456.05 C632.283333,440.883333 656.9,413.933333 686.3,375.2 L693.3,410.2 C672.3,450.333333 648.15,480.783333 620.85,501.55 C593.55,522.316667 563.1,532.7 529.5,532.7 C496.366667,532.7 470.583333,522.9 452.15,503.3 C433.716667,483.7 424.5,454.766667 424.5,416.5 L424.5,140.7 L486.8,140.7 L486.8,408.1 Z M737.4,525.7 L690.5,525.7 L675.1,408.1 L675.1,140.7 L737.4,140.7 L737.4,525.7 Z" id="Shape"></path>
            <path d="M843.4,156.1 L1185,156.1 L1185,210 L843.4,210 L843.4,156.1 Z M1185.7,58.8 C1134.36667,58.8 1096.21667,61.1333333 1071.25,65.8 C1046.28333,70.4666667 1029.01667,78.9833333 1019.45,91.35 C1009.88333,103.716667 1005.1,122.733333 1005.1,148.4 L1005.1,525.7 L942.8,525.7 L942.8,147.7 C942.8,111.3 950.733333,82.3666667 966.6,60.9 C982.466667,39.4333333 1007.9,23.9166667 1042.9,14.35 C1077.9,4.78333333 1125.5,0 1185.7,0 L1185.7,58.8 Z" id="Shape"></path>
            <path d="M1420.5,54.6 L1420.5,396.2 C1420.5,422.8 1426.8,442.516667 1439.4,455.35 C1452,468.183333 1473.23333,474.6 1503.1,474.6 C1532.96667,474.6 1561.43333,468.533333 1588.5,456.4 L1588.5,516.6 C1574.03333,521.733333 1558.98333,525.7 1543.35,528.5 C1527.71667,531.3 1512.2,532.7 1496.8,532.7 C1450.6,532.7 1415.83333,521.15 1392.5,498.05 C1369.16667,474.95 1357.5,443.8 1357.5,404.6 L1357.5,186.2 L1410.7,140.7 L1588.5,140.7 L1588.5,196.7 L1268.6,196.7 L1268.6,156.1 L1357.5,140.7 L1372.2,54.6 L1420.5,54.6 Z" id="Path"></path>
            <path d="M1711.3,606.2 C1753.3,606.2 1785.73333,598.966667 1808.6,584.5 C1831.46667,570.033333 1847.1,547.166667 1855.5,515.9 L1878.6,525.7 L1819.1,525.7 L1687.5,140.7 L1756.1,140.7 L1875.1,515.9 L1858.3,515.9 L1977.3,140.7 L2045.9,140.7 L1911.5,534.1 C1896.1,578.9 1871.95,612.033333 1839.05,633.5 C1806.15,654.966667 1763.56667,665.7 1711.3,665.7 L1711.3,606.2 Z" id="Path"></path>
            <path d="M2137.9,658.7 L2137.9,140.7 L2184.8,140.7 L2200.2,235.2 L2186.2,226.8 C2197.86667,196.466667 2214.55,173.366667 2236.25,157.5 C2257.95,141.633333 2284.2,133.7 2315,133.7 C2361.66667,133.7 2397.71667,150.733333 2423.15,184.8 C2448.58333,218.866667 2461.3,267.166667 2461.3,329.7 C2461.3,394.1 2448.58333,444.033333 2423.15,479.5 C2397.71667,514.966667 2361.66667,532.7 2315,532.7 C2286.06667,532.7 2261.1,525.933333 2240.1,512.4 C2219.1,498.866667 2202.53333,479.266667 2190.4,453.6 L2200.2,442.4 L2200.2,658.7 L2137.9,658.7 Z M2298.2,189.7 C2262.73333,189.7 2237.53333,200.316667 2222.6,221.55 C2207.66667,242.783333 2200.2,278.833333 2200.2,329.7 C2200.2,382.433333 2207.66667,420.116667 2222.6,442.75 C2237.53333,465.383333 2262.73333,476.7 2298.2,476.7 C2333.66667,476.7 2358.75,466.083333 2373.45,444.85 C2388.15,423.616667 2395.5,387.566667 2395.5,336.7 C2395.5,283.966667 2388.03333,246.283333 2373.1,223.65 C2358.16667,201.016667 2333.2,189.7 2298.2,189.7 Z" id="Shape"></path>
            <path d="M2726.2,532.7 C2672.06667,532.7 2629.71667,516.6 2599.15,484.4 C2568.58333,452.2 2553.3,405.766667 2553.3,345.1 C2553.3,280.233333 2569.16667,228.783333 2600.9,190.75 C2632.63333,152.716667 2676.96667,133.7 2733.9,133.7 C2785.7,133.7 2825.25,149.916667 2852.55,182.35 C2879.85,214.783333 2893.5,261.333333 2893.5,322 C2893.5,337.4 2893.26667,349.066667 2892.8,357 L2601.6,357 L2601.6,303.1 L2856.4,303.1 L2828.4,331.1 C2827.93333,296.1 2824.66667,268.683333 2818.6,248.85 C2812.53333,229.016667 2802.38333,214.55 2788.15,205.45 C2773.91667,196.35 2754.2,191.8 2729,191.8 C2689.33333,191.8 2660.98333,202.533333 2643.95,224 C2626.91667,245.466667 2618.4,282.1 2618.4,333.9 C2618.4,384.3 2627.61667,420.35 2646.05,442.05 C2664.48333,463.75 2693.3,474.6 2732.5,474.6 C2755.83333,474.6 2778.58333,471.216667 2800.75,464.45 C2822.91667,457.683333 2844.03333,448 2864.1,435.4 L2864.1,495.6 C2843.1,507.733333 2820.93333,516.95 2797.6,523.25 C2774.26667,529.55 2750.46667,532.7 2726.2,532.7 Z" id="Path"></path>
        </g>
    </g>
</svg>