<?xml version="1.0" encoding="UTF-8"?>
<svg width="697px" height="697px" viewBox="0 0 697 697" version="1.1" xmlns="http://www.w3.org/2000/svg" xmlns:xlink="http://www.w3.org/1999/xlink">
    <title>Logomark</title>
    <g id="Logo" stroke="none" stroke-width="1" fill="none" fill-rule="evenodd">
        <g id="Logomark">
            <g id="Page-Stack" fill="#FAFBFE" fill-rule="nonzero">
                <path d="M348.670317,697 C360.940508,697 371.50508,691.20369 385.821524,682.680318 L678.596633,509.796578 C690.864381,502.634992 697,490.700175 697,480.130635 C697,466.149652 686.773968,454.895728 677.232,450.122498 L361.621081,632.894885 C356.508065,635.621943 352.421142,637.668111 348.670317,637.668111 C344.580602,637.668111 340.490539,635.621943 335.378221,632.894885 L19.7682095,450.122498 C10.2249491,454.895728 0,466.149652 0,480.130635 C0,490.700175 6.13495557,502.634992 18.7457111,509.796578 L311.179174,682.680318 C325.834856,691.20369 336.059841,697 348.670317,697 Z" id="Bottom-Page"></path>
                <path d="M348.670317,568 C360.940508,568 371.50508,562.1974 385.821524,553.669919 L678.596633,380.702847 C691.206411,372.856585 697,361.600729 697,351.022601 C697,337.034879 686.773968,325.436668 677.232,321 L361.621081,503.518133 C356.508065,506.249998 352.421142,508.297153 348.670317,508.297153 C344.580602,508.297153 340.490539,506.249998 335.378221,503.518133 L19.7682095,321 C10.2249491,325.436668 0,337.034879 0,351.022601 C0,361.600729 6.13495557,373.198944 18.7457111,380.702847 L311.179174,553.669919 C325.834856,562.1974 336.059841,568 348.670317,568 Z" id="Middle-Page"></path>
                <g id="Top-Page" transform="translate(0.340831, 0.000000)">
                    <path d="M348.329486,432.036397 C361.96431,432.036397 375.254661,427.60187 391.616312,418.055415 L658.145772,263.245694 C685.752567,247.218893 696.317139,234.602134 696.317139,215.847573 C696.317139,197.434158 685.752567,184.817402 658.145772,168.790948 L391.616312,13.9806698 C375.254661,4.43288693 361.96431,0 348.329486,0 C334.355424,0 321.403962,4.43288693 304.703073,13.9806698 L38.173264,168.790948 C10.5657722,184.817402 0,197.434158 0,215.847573 C0,234.602134 10.5657722,247.218893 38.173264,263.245694 L304.703073,418.055415 C321.403962,427.60187 334.355424,432.036397 348.329486,432.036397 Z" id="Outline"></path>
                    <path d="M348.329486,372.704509 C343.217168,372.704509 338.78647,371.000534 332.992184,367.931282 L73.61955,219.257622 C72.2563118,218.575682 71.2337087,217.552598 71.2337087,215.847573 C71.2337087,214.483695 72.2563118,213.460611 73.61955,212.77867 L332.992184,64.1064087 C338.78647,61.0375057 343.217168,59.3324822 348.329486,59.3324822 C353.102915,59.3324822 357.531867,61.0375057 363.325457,64.1064087 L622.700184,212.77867 C624.403361,213.460611 625.083931,214.483695 625.083931,215.847573 C625.083931,217.552598 624.403361,218.575682 622.700184,219.257622 L363.325457,367.931282 C357.531867,371.000534 353.102915,372.704509 348.329486,372.704509 Z" id="Inner"></path>
                </g>
            </g>
            <g id="Text" transform="translate(82.000000, 101.000000)" fill="#373737">
                <path d="M25.2297695,99.4700121 L175.936112,13.2531747 C190.344772,5.01019622 207.98637,4.78316424 222.602384,12.6526205 C229.938864,16.6026794 232.684102,25.7522275 228.734043,33.0887083 C227.434381,35.5025824 225.501547,37.5167002 223.143228,38.9146415 L76.6624697,125.744062 C61.1064237,134.965222 41.8989372,135.528422 25.8293184,127.234586 C18.0723153,123.23105 15.0295295,113.697249 19.033066,105.940246 C20.4313663,103.230986 22.5833973,100.983962 25.2297695,99.4700121 Z" id="Bottom-Line"></path>
                <path d="M102.307393,144.801311 L302.158896,27.0982746 C317.031689,18.3389066 335.442799,18.1590173 350.483907,26.6261058 C358.241745,30.9932245 360.990466,40.822444 356.623347,48.5802819 C355.238307,51.0406952 353.231305,53.0941545 350.803225,54.5351259 L153.916607,171.379717 C138.366453,180.608132 119.159442,181.176233 103.091037,172.883024 C95.2170403,168.819105 92.1283621,159.141511 96.1922813,151.267515 C97.5800937,148.578576 99.7000347,146.336921 102.307393,144.801311 Z" id="Middle-Line"></path>
                <path d="M182.620194,188.441667 L310.716312,113.185471 C325.075334,104.749576 342.815017,104.496017 357.409278,112.518074 C364.927156,116.65044 367.671655,126.09483 363.539289,133.612708 C362.229701,135.995198 360.317736,137.992246 357.994485,139.404259 L233.668922,214.966188 C218.481331,224.196821 199.583709,224.855263 183.790491,216.704084 L183.387912,216.496305 C175.523969,212.437575 172.439234,202.772338 176.497965,194.908394 C177.886705,192.217657 180.009433,189.975484 182.620194,188.441667 Z" id="Top-Line"></path>
            </g>
        </g>
    </g>
</svg>